<?xml version="1.0" encoding="UTF-8" standalone="no"?>
<svg
   xmlns:dc="http://purl.org/dc/elements/1.1/"
   xmlns:cc="http://creativecommons.org/ns#"
   xmlns:rdf="http://www.w3.org/1999/02/22-rdf-syntax-ns#"
   xmlns:svg="http://www.w3.org/2000/svg"
   xmlns="http://www.w3.org/2000/svg"
   id="svg1235"
   version="1.1"
   viewBox="0 0 54.49394 53.190764"
   height="53.190765mm"
   width="54.493938mm">
  <defs
     id="defs1229" />
  <metadata
     id="metadata1232">
    <rdf:RDF>
      <cc:Work
         rdf:about="">
        <dc:format>image/svg+xml</dc:format>
        <dc:type
           rdf:resource="http://purl.org/dc/dcmitype/StillImage" />
        <dc:title></dc:title>
      </cc:Work>
    </rdf:RDF>
  </metadata>
  <g
     transform="translate(-110.35438,-79.276115)"
     id="layer1">
    <path
       d="m 157.62378,89.378259 -15.73389,-9.083322 c -1.17651,-0.679097 -2.72662,-1.018822 -4.27778,-1.018822 v 53.190765 c 1.55116,0 3.10127,-0.33937 4.27743,-1.01882 l 15.73459,-9.08402 c 2.35268,-1.35855 4.27743,-4.69265 4.27743,-7.40904 V 96.786944 c 0,-2.71674 -1.92511,-6.050843 -4.27778,-7.408685"
       style="fill:#6b1319;fill-opacity:1;fill-rule:nonzero;stroke:none;stroke-width:0.03527778"
       id="path918" />
    <path
       d="m 133.33468,80.294937 -15.73354,9.083322 c -2.35303,1.357842 -4.27743,4.691945 -4.27743,7.408685 V 114.955 c 0,2.71639 1.9244,6.05049 4.27743,7.40904 l 15.73354,9.08402 c 1.17616,0.67945 2.72732,1.01882 4.27743,1.01882 V 79.276115 c -1.55046,0 -3.10127,0.339725 -4.27743,1.018822"
       style="fill:#ef3638;fill-opacity:1;fill-rule:nonzero;stroke:none;stroke-width:0.03527778"
       id="path920" />
    <path
       d="m 156.23278,109.6217 c 0,3.84986 -2.72768,8.57497 -6.06214,10.50008 l -6.49605,3.75073 c -3.33445,1.92476 -8.79016,1.92476 -12.12426,0 l -6.49641,-3.75073 c -3.3341,-1.92511 -6.06178,-6.65022 -6.06178,-10.50008 v -7.50111 c 0,-3.850216 2.72803,-8.574966 6.06214,-10.500076 l 6.49569,-3.750027 c 3.33411,-1.924756 8.79052,-1.924756 12.12462,0 l 6.49605,3.750377 c 3.33411,1.92476 6.06214,6.64951 6.06214,10.499726 v 7.50111"
       style="fill:#ffffff;fill-opacity:1;fill-rule:nonzero;stroke:none;stroke-width:0.03527778"
       id="path922" />
    <path
       d="m 164.84832,117.86118 v -0.049 h -54.49359 l -3.5e-4,0.049 1.89124,4.38644 -1.89124,4.38573 3.5e-4,0.0497 h 54.49359 v -0.0497 l -1.89054,-4.38573 1.89054,-4.38644"
       style="fill:#393536;fill-opacity:1;fill-rule:nonzero;stroke:none;stroke-width:0.03527778"
       id="path924" />
    <path
       d="m 117.39477,121.98727 c 0.33937,0 0.54363,-0.16228 0.54363,-0.43392 0,-0.27199 -0.20426,-0.43427 -0.54363,-0.43427 h -0.50201 v 0.86819 z m 0.0155,-1.6884 c 0.89888,0 1.44251,0.47026 1.44251,1.25448 0,0.78387 -0.54363,1.25448 -1.44251,1.25448 h -0.51753 v 1.14935 h -0.87806 v -3.65831 h 1.39559"
       style="fill:#ffffff;fill-opacity:1;fill-rule:nonzero;stroke:none;stroke-width:0.03527778"
       id="path926" />
    <path
       d="m 120.19124,121.98727 h 0.60642 c 0.31362,0 0.43921,-0.23566 0.43921,-0.43392 0,-0.19861 -0.12559,-0.43427 -0.43921,-0.43427 h -0.60642 z m 1.12888,1.96991 -0.67909,-1.19133 h -0.44979 v 1.19133 h -0.87807 v -3.65831 h 1.36419 c 0.92005,0 1.47391,0.50165 1.47391,1.25448 0,0.49107 -0.23495,0.85725 -0.65828,1.05551 l 0.80997,1.34832 h -0.98284"
       style="fill:#ffffff;fill-opacity:1;fill-rule:nonzero;stroke:none;stroke-width:0.03527778"
       id="path928" />
    <path
       d="m 125.55981,123.13697 v 0.82021 h -2.6917 v -3.65831 h 2.65995 v 0.82021 h -1.78188 v 0.60149 h 1.39559 v 0.76835 h -1.39559 v 0.64805 h 1.81363"
       style="fill:#ffffff;fill-opacity:1;fill-rule:nonzero;stroke:none;stroke-width:0.03527778"
       id="path930" />
    <path
       d="m 127.21187,121.98727 h 0.60607 c 0.31397,0 0.43956,-0.23566 0.43956,-0.43392 0,-0.19861 -0.12559,-0.43427 -0.43956,-0.43427 h -0.60607 z m 1.12888,1.96991 -0.67945,-1.19133 h -0.44943 v 1.19133 h -0.87842 v -3.65831 h 1.36454 c 0.9197,0 1.47356,0.50165 1.47356,1.25448 0,0.49107 -0.23495,0.85725 -0.65793,1.05551 l 0.80962,1.34832 h -0.98249"
       style="fill:#ffffff;fill-opacity:1;fill-rule:nonzero;stroke:none;stroke-width:0.03527778"
       id="path932" />
    <path
       d="m 132.57973,123.13697 v 0.82021 h -2.69134 v -3.65831 h 2.6603 v 0.82021 h -1.78224 v 0.60149 h 1.39524 v 0.76835 h -1.39524 v 0.64805 h 1.81328"
       style="fill:#ffffff;fill-opacity:1;fill-rule:nonzero;stroke:none;stroke-width:0.03527778"
       id="path934" />
    <path
       d="m 135.86268,123.65979 c -0.21413,0.23001 -0.63253,0.37077 -0.99271,0.37077 -1.05093,0 -1.89724,-0.79975 -1.89724,-1.90218 0,-1.10278 0.84631,-1.90288 1.89724,-1.90288 0.71049,0 1.33244,0.37676 1.66193,0.97225 l -0.89429,0.2353 c -0.17216,-0.20919 -0.48048,-0.33972 -0.76764,-0.33972 -0.60643,0 -0.98249,0.43427 -0.98249,1.03505 0,0.64241 0.43321,1.04528 1.0347,1.04528 0.5849,0 0.84137,-0.30339 0.94579,-0.57503 v -0.005 h -0.96167 v -0.70555 h 1.70886 v 2.06939 h -0.75248 c 0,-0.23989 0.005,-0.29245 0.005,-0.29739 h -0.005"
       style="fill:#ffffff;fill-opacity:1;fill-rule:nonzero;stroke:none;stroke-width:0.03527778"
       id="path936" />
    <path
       d="m 137.33729,123.95718 v -3.65831 h 0.87807 v 3.65831 h -0.87807"
       style="fill:#ffffff;fill-opacity:1;fill-rule:nonzero;stroke:none;stroke-width:0.03527778"
       id="path938" />
    <path
       d="m 140.82344,121.45916 c -0.0885,-0.3242 -0.37077,-0.47519 -0.63217,-0.47519 -0.26141,0 -0.41275,0.13053 -0.41275,0.27658 0,0.24024 0.36583,0.32914 0.81033,0.49106 0.54327,0.19897 1.11266,0.5073 1.11266,1.13454 0,0.66921 -0.57468,1.14441 -1.42664,1.14441 -0.76305,0 -1.30669,-0.42334 -1.54728,-1.10808 l 0.84138,-0.22437 c 0.0945,0.27658 0.3556,0.55351 0.74259,0.55351 0.31362,0 0.45967,-0.1464 0.45967,-0.32385 0,-0.2928 -0.42862,-0.36583 -0.95109,-0.56409 -0.43921,-0.16757 -0.94615,-0.40781 -0.94615,-1.05092 0,-0.56974 0.57503,-1.08726 1.36949,-1.08726 0.70026,0 1.25412,0.42897 1.42698,1.004 l -0.84702,0.22966"
       style="fill:#ffffff;fill-opacity:1;fill-rule:nonzero;stroke:none;stroke-width:0.03527778"
       id="path940" />
    <path
       d="m 144.97423,120.29887 v 0.82021 h -1.11337 v 2.8381 h -0.87806 v -2.8381 h -1.0975 v -0.82021 h 3.08893"
       style="fill:#ffffff;fill-opacity:1;fill-rule:nonzero;stroke:none;stroke-width:0.03527778"
       id="path942" />
    <path
       d="m 148.12594,123.13697 v 0.82021 h -2.69134 v -3.65831 h 2.6603 v 0.82021 h -1.78259 v 0.60149 h 1.39559 v 0.76835 h -1.39559 v 0.64805 h 1.81363"
       style="fill:#ffffff;fill-opacity:1;fill-rule:nonzero;stroke:none;stroke-width:0.03527778"
       id="path944" />
    <path
       d="m 149.778,121.98727 h 0.60643 c 0.31362,0 0.43885,-0.23566 0.43885,-0.43392 0,-0.19861 -0.12523,-0.43427 -0.43885,-0.43427 H 149.778 Z m 1.12924,1.96991 -0.67945,-1.19133 H 149.778 v 1.19133 h -0.87771 v -3.65831 h 1.36384 c 0.92004,0 1.47426,0.50165 1.47426,1.25448 0,0.49107 -0.23566,0.85725 -0.65864,1.05551 l 0.80998,1.34832 h -0.98249"
       style="fill:#ffffff;fill-opacity:1;fill-rule:nonzero;stroke:none;stroke-width:0.03527778"
       id="path946" />
    <path
       d="m 155.14622,123.13697 v 0.82021 h -2.69134 v -3.65831 h 2.6603 v 0.82021 h -1.78188 v 0.60149 h 1.39523 v 0.76835 h -1.39523 v 0.64805 h 1.81292"
       style="fill:#ffffff;fill-opacity:1;fill-rule:nonzero;stroke:none;stroke-width:0.03527778"
       id="path948" />
    <path
       d="m 157.52006,123.13697 c 0.52247,0 0.9772,-0.36618 0.9772,-0.99307 0,-0.62759 -0.45473,-1.02482 -0.9772,-1.02482 h -0.72108 v 2.01789 z m 0,-2.8381 c 1.04528,0 1.89195,0.74754 1.89195,1.84503 0,1.09749 -0.84667,1.81328 -1.89195,1.81328 h -1.59914 v -3.65831 h 1.59914"
       style="fill:#ffffff;fill-opacity:1;fill-rule:nonzero;stroke:none;stroke-width:0.03527778"
       id="path950" />
    <path
       d="m 128.6258,109.10665 c -0.49706,-0.49742 -0.39158,-1.41711 0,-1.8087 v 0 l 1.38148,-1.38147 c 0.49812,-0.49742 1.31162,-0.49742 1.80869,0 l 2.14841,2.14771 c 0.49742,0.49741 1.31128,0.49741 1.8087,0 l 8.93092,-8.930916 c 0.49742,-0.49707 1.31127,-0.49707 1.80904,0 l 1.38148,1.381466 c 0.49706,0.49742 0.49706,1.31128 0,1.8087 l -12.12144,12.12109 c -0.49742,0.49777 -1.31128,0.49777 -1.8087,0 l -5.33858,-5.33788"
       style="fill:#ef3638;fill-opacity:1;fill-rule:nonzero;stroke:none;stroke-width:0.03527778"
       id="path952" />
  </g>
</svg>
